HIERARCHY
ROOT joint_Root
{
	OFFSET 0.0 0.0 0.0
	CHANNELS 6 Xposition Yposition Zposition Zrotation Xrotation Yrotation 
	JOINT Hips
	{
		OFFSET -0.726466 93.3139 -2.00062
		CHANNELS 6 Xposition Yposition Zposition Zrotation Xrotation Yrotation 
		JOINT Spine
		{
			OFFSET 15.7357 0.0 0.0
			CHANNELS 6 Xposition Yposition Zposition Zrotation Xrotation Yrotation 
			JOINT Chest
			{
				OFFSET 8.98455 -0.406207 0.0
				CHANNELS 6 Xposition Yposition Zposition Zrotation Xrotation Yrotation 
				JOINT Neck
				{
					OFFSET 16.3773 0.0 0.0
					CHANNELS 6 Xposition Yposition Zposition Zrotation Xrotation Yrotation 
					JOINT Head
					{
						OFFSET 6.45672 0.0 0.0
						CHANNELS 6 Xposition Yposition Zposition Zrotation Xrotation Yrotation 
						End Site
						{
							OFFSET 0.0 0.0 0.0
						}
					}
				}
				JOINT Shoulder_L
				{
					OFFSET 12.9942 -0.242716 4.98039
					CHANNELS 6 Xposition Yposition Zposition Zrotation Xrotation Yrotation 
					JOINT UpperArm_L
					{
						OFFSET 5.34809 0.0 0.0
						CHANNELS 6 Xposition Yposition Zposition Zrotation Xrotation Yrotation 
						JOINT LowerArm_L
						{
							OFFSET 24.3286 1.87007e-05 0.0
							CHANNELS 6 Xposition Yposition Zposition Zrotation Xrotation Yrotation 
							JOINT Hand_L
							{
								OFFSET 22.2916 0.0 0.0
								CHANNELS 6 Xposition Yposition Zposition Zrotation Xrotation Yrotation 
								End Site
								{
									OFFSET 0.0 0.0 0.0
								}
							}
						}
					}
				}
				JOINT Shoulder_R
				{
					OFFSET 12.9945 -0.242716 -4.98039
					CHANNELS 6 Xposition Yposition Zposition Zrotation Xrotation Yrotation 
					JOINT UpperArm_R
					{
						OFFSET -5.34813 0.0 0.0
						CHANNELS 6 Xposition Yposition Zposition Zrotation Xrotation Yrotation 
						JOINT LowerArm_R
						{
							OFFSET -24.3289 0.000322201 0.0
							CHANNELS 6 Xposition Yposition Zposition Zrotation Xrotation Yrotation 
							JOINT Hand_R
							{
								OFFSET -22.2915 -0.000108084 0.0
								CHANNELS 6 Xposition Yposition Zposition Zrotation Xrotation Yrotation 
								End Site
								{
									OFFSET 0.0 0.0 0.0
								}
							}
						}
					}
				}
			}
		}
		JOINT UpperLeg_L
		{
			OFFSET -2.19248 -6.46944 0.0
			CHANNELS 6 Xposition Yposition Zposition Zrotation Xrotation Yrotation 
			JOINT LowerLeg_L
			{
				OFFSET 39.0811 0.0 -1.23785e-05
				CHANNELS 6 Xposition Yposition Zposition Zrotation Xrotation Yrotation 
				JOINT Foot_L
				{
					OFFSET 40.9854 0.0 -1.26872e-05
					CHANNELS 6 Xposition Yposition Zposition Zrotation Xrotation Yrotation 
					JOINT Toes_L
					{
						OFFSET 11.7543 0.0 0.0
						CHANNELS 6 Xposition Yposition Zposition Zrotation Xrotation Yrotation 
						End Site
						{
							OFFSET 0.0 0.0 0.0
						}
					}
				}
			}
		}
		JOINT UpperLeg_R
		{
			OFFSET -2.19251 6.46944 0.0
			CHANNELS 6 Xposition Yposition Zposition Zrotation Xrotation Yrotation 
			JOINT LowerLeg_R
			{
				OFFSET -39.0811 -0.00228153 -0.0401928
				CHANNELS 6 Xposition Yposition Zposition Zrotation Xrotation Yrotation 
				JOINT Foot_R
				{
					OFFSET -40.9854 0.0 0.0
					CHANNELS 6 Xposition Yposition Zposition Zrotation Xrotation Yrotation 
					JOINT Toes_R
					{
						OFFSET -11.7543 0.0 0.0
						CHANNELS 6 Xposition Yposition Zposition Zrotation Xrotation Yrotation 
						End Site
						{
							OFFSET 0.0 0.0 0.0
						}
					}
				}
			}
		}
	}
}
MOTION
Frames:	4
Frame Time:	0.0333333
0.000000 0.000000 0.000000 0.000000 0.000000 -0.000000 -0.313777 92.266100 -2.105460 87.427600 -1.637170 1.986040 15.735700 0.000005 -0.000001 97.664000 86.925200 -99.217500 8.984550 -0.406207 -0.000000 -1.656700 0.947629 -3.092410 16.377300 -0.000001 -0.000001 -0.262552 -2.067960 0.901825 6.456720 -0.000001 -0.000000 -3.006650 -1.646420 1.254970 12.994200 -0.242716 4.980390 -87.946500 -5.896550 -70.759900 5.348090 -0.000007 -0.000001 24.635300 73.750200 -74.171400 24.328600 0.000019 0.000005 11.257600 0.493368 -87.523000 22.291600 -0.000001 0.000005 36.629800 5.631440 -28.795700 12.994500 -0.242716 -4.980390 91.226100 -2.739880 -65.880000 -5.348130 -0.000001 -0.000004 -46.068400 -54.616600 -96.648800 -24.328900 0.000322 -0.000009 1.986650 1.356560 -55.703400 -22.291500 -0.000108 -0.000004 26.845300 5.518160 -7.283710 -2.192480 -6.469440 -0.000000 -168.729000 -16.500900 -3.660920 39.081100 -0.000007 -0.000012 -0.164461 0.446577 20.217400 40.985400 -0.000006 -0.000013 -6.176100 3.667540 -62.518500 11.754300 -0.000000 0.000003 -0.000129 -0.001279 -16.626300 -2.192510 6.469440 -0.000001 175.218000 19.505700 177.405000 -39.081100 -0.002282 -0.040193 0.037320 -0.101371 18.539400 -40.985400 0.000008 0.000006 -0.910239 2.546190 -61.996100 -11.754300 -0.000006 -0.000006 -0.006374 -0.074196 -19.593000
0.000000 0.000000 0.000000 0.000000 0.000000 -0.000000 -0.342286 92.266300 -2.064110 87.387700 -1.690180 1.975400 15.735700 0.000005 -0.000001 97.882800 86.933700 -99.414000 8.984550 -0.406207 -0.000000 -1.676660 0.967001 -3.047550 16.377300 -0.000001 -0.000001 -0.302530 -2.069470 0.954283 6.456720 -0.000001 -0.000000 -3.029980 -1.659040 1.243890 12.994200 -0.242716 4.980390 -87.956700 -5.868670 -70.764800 5.348090 -0.000007 -0.000001 24.711300 73.751300 -74.230000 24.328600 0.000019 0.000005 11.193500 0.488200 -87.534500 22.291600 -0.000001 0.000005 36.560900 5.632180 -28.739700 12.994500 -0.242716 -4.980390 91.226200 -2.738420 -65.865700 -5.348130 -0.000001 -0.000004 -46.070800 -54.571200 -96.621500 -24.328900 0.000322 -0.000009 2.014610 1.374320 -55.729400 -22.291500 -0.000108 -0.000004 26.876500 5.518800 -7.311080 -2.192480 -6.469440 -0.000000 -168.643000 -16.582300 -3.607450 39.081100 -0.000007 -0.000012 -0.166527 0.453010 20.183700 40.985400 -0.000006 -0.000013 -6.205370 3.714230 -62.521900 11.754300 -0.000000 0.000003 -0.000141 -0.001380 -16.630100 -2.192510 6.469440 -0.000001 175.270000 19.466200 177.427000 -39.081100 -0.002282 -0.040193 0.036019 -0.097599 18.520600 -40.985400 0.000008 0.000006 -0.980563 2.572500 -61.977700 -11.754300 -0.000006 -0.000006 -0.006447 -0.074839 -19.619300
0.000000 0.000000 0.000000 0.000000 0.000000 -0.000000 -0.373830 92.258100 -2.027080 87.374100 -1.702030 1.972390 15.735700 0.000005 -0.000001 97.671400 86.939200 -99.199100 8.984550 -0.406207 -0.000000 -1.684800 0.942938 -3.040760 16.377300 -0.000001 -0.000001 -0.362414 -2.076540 1.006300 6.456720 -0.000001 -0.000000 -3.021270 -1.603890 1.268720 12.994200 -0.242716 4.980390 -87.969800 -5.833160 -70.771100 5.348090 -0.000007 -0.000001 24.767500 73.738000 -74.258700 24.328600 0.000019 0.000005 11.133700 0.489331 -87.515200 22.291600 -0.000001 0.000005 36.533900 5.631640 -28.780400 12.994500 -0.242716 -4.980390 91.195400 -2.672350 -65.889300 -5.348130 -0.000001 -0.000004 -46.059500 -54.536900 -96.652800 -24.328900 0.000322 -0.000009 2.019280 1.379990 -55.681500 -22.291500 -0.000108 -0.000004 26.865800 5.518550 -7.300090 -2.192480 -6.469440 -0.000000 -168.618000 -16.579800 -3.613740 39.081100 -0.000007 -0.000012 -0.164302 0.445671 20.237200 40.985400 -0.000006 -0.000013 -6.220900 3.694090 -62.566000 11.754300 -0.000000 0.000003 -0.000141 -0.001378 -16.630000 -2.192510 6.469440 -0.000001 175.302000 19.457600 177.437000 -39.081100 -0.002282 -0.040193 0.037339 -0.101374 18.548700 -40.985400 0.000008 0.000006 -0.891891 2.553810 -62.064700 -11.754300 -0.000006 -0.000006 -0.006687 -0.076949 -19.705400
0.000000 0.000000 0.000000 0.000000 0.000000 -0.000000 -0.400663 92.258200 -1.998650 87.367500 -1.717130 1.956370 15.735700 0.000005 -0.000001 97.766000 86.955800 -99.287600 8.984550 -0.406207 -0.000000 -1.719060 0.948421 -3.028160 16.377300 -0.000001 -0.000001 -0.375923 -2.082320 1.031430 6.456720 -0.000001 -0.000000 -3.044570 -1.627350 1.287020 12.994200 -0.242716 4.980390 -87.977300 -5.823210 -70.807200 5.348090 -0.000007 -0.000001 24.995600 73.759500 -74.514900 24.328600 0.000019 0.000005 11.077800 0.500095 -87.447500 22.291600 -0.000001 0.000005 36.706400 5.631140 -28.817900 12.994500 -0.242716 -4.980390 91.198900 -2.678990 -65.879200 -5.348130 -0.000001 -0.000004 -46.053600 -54.485900 -96.581000 -24.328900 0.000322 -0.000009 2.043990 1.393780 -55.740700 -22.291500 -0.000108 -0.000004 26.838200 5.519170 -7.327080 -2.192480 -6.469440 -0.000000 -168.584000 -16.563700 -3.568840 39.081100 -0.000007 -0.000012 -0.165785 0.451027 20.182200 40.985400 -0.000006 -0.000013 -6.259220 3.662710 -62.563700 11.754300 -0.000000 0.000003 -0.000122 -0.001219 -16.624100 -2.192510 6.469440 -0.000001 175.320000 19.439900 177.447000 -39.081100 -0.002282 -0.040193 0.036035 -0.097511 18.544300 -40.985400 0.000008 0.000006 -0.976550 2.565380 -62.061900 -11.754300 -0.000006 -0.000006 -0.006459 -0.074946 -19.623700
